<svg xmlns="http://www.w3.org/2000/svg" width="20" height="18" viewBox="0 0 20 18">
    <g fill="none" fill-rule="evenodd" stroke="#F00">
        <path stroke-width="6" d="M10 13.279c.319-.245.631-.49.93-.734.276-.223.533-.438.768-.643.184-.161.354-.315.508-.459.11-.104 1.424-1.293 1.803-1.662C15.382 8.442 16 7.41 16 6.474 16 4.877 15.145 4 14.05 4c-.417 0-.716.14-1 .421a2.19 2.19 0 0 0-.315.385L10 10.871 7.265 4.806a2.19 2.19 0 0 0-.315-.385C6.666 4.14 6.367 4 5.95 4 4.855 4 4 4.877 4 6.474c0 .937.618 1.968 1.991 3.307.379.369 1.693 1.558 1.803 1.662.154.144.324.298.508.459.235.205.492.42.767.643.3.243.612.49.931.734z"/>
        <path stroke-linecap="round" stroke-linejoin="round" stroke-width="2" d="M10 3.573S8.84 1 5.95 1C3.373 1 1 3.04 1 6.474c0 3.273 3.068 5.582 4.739 7.154C7.409 15.2 10 17 10 17s2.59-1.8 4.261-3.372C15.932 12.056 19 9.748 19 6.474 19 3.04 16.627 1 14.05 1 11.16 1 10 3.573 10 3.573z"/>
    </g>
</svg>
